<svg width="32" height="32" viewBox="0 0 32 32" xmlns="http://www.w3.org/2000/svg">
  <!-- Background circle with brand gradient -->
  <defs>
    <linearGradient id="brandGradient" x1="0%" y1="0%" x2="100%" y2="100%">
      <stop offset="0%" style="stop-color:#f59e0b;stop-opacity:1" />
      <stop offset="50%" style="stop-color:#ef4444;stop-opacity:1" />
      <stop offset="100%" style="stop-color:#8b5cf6;stop-opacity:1" />
    </linearGradient>
  </defs>
  
  <!-- Background -->
  <circle cx="16" cy="16" r="15" fill="url(#brandGradient)"/>
  
  <!-- Cannabis leaf simplified icon -->
  <g fill="#ffffff">
    <!-- Main leaf shape -->
    <path d="M16 6 C18 8, 20 10, 20 14 C20 16, 18 18, 16 18 C14 18, 12 16, 12 14 C12 10, 14 8, 16 6 Z"/>
    <!-- Left leaflet -->
    <path d="M12 12 C10 10, 8 12, 8 14 C8 16, 10 16, 12 14 Z"/>
    <!-- Right leaflet -->
    <path d="M20 12 C22 10, 24 12, 24 14 C24 16, 22 16, 20 14 Z"/>
    <!-- Stem -->
    <rect x="15.5" y="18" width="1" height="8" fill="#ffffff"/>
  </g>
</svg>
